# xmcd
#
# Track frame offsets:
#	150
#	1913
#	62798
#	126048
#	207310
#	238572
#	286777
#	333365
#
# Disc length: 4791 seconds
#
# Revision: 1
# Processed by: cddbd v1.5.2PL0 Copyright (c) Steve Scherf et al.
# Submitted via: audiograbber 1.83.01
#
DISCID=6912b508
DTITLE=Grateful Dead - 78-04-18A Pittsburgh Civic Arena, Pittsburgh PA
DYEAR=1900
DGENRE=
TTITLE0=Crowd - Tuning 2
TTITLE1=Scarlet Begonias
TTITLE2=Dancing In The Streets
TTITLE3=Drums
TTITLE4=Samson and Delilah
TTITLE5=Terrapin Station
TTITLE6=Around and Around
TTITLE7=US Blues
EXTD=
EXTT0=
EXTT1=
EXTT2=
EXTT3=
EXTT4=
EXTT5=
EXTT6=
EXTT7=
PLAYORDER=
